<svg width="302" height="81" viewBox="0 0 302 81" fill="none" xmlns="http://www.w3.org/2000/svg">
<g clip-path="url(#clip0_194_2)">
<path d="M269.901 1.85823L268.856 1.07757C268.247 0.621171 268.327 0.408989 269.096 0.441016C269.825 0.465037 270.525 0.553115 271.198 0.705247C271.854 0.849372 271.866 1.03352 271.234 1.25771C271.01 1.32978 270.845 1.46589 270.741 1.66606C270.541 2.06641 270.261 2.13047 269.901 1.85823Z" fill="#050608"/>
<path d="M293.979 5.28122C292.194 4.4405 290.32 3.83998 288.359 3.47966C283.379 2.57488 278.179 1.83022 272.759 1.24571C272.575 1.22169 272.495 1.1216 272.519 0.945451V0.933465C272.535 0.829375 272.595 0.781303 272.699 0.78931C281.938 1.71811 291.481 3.09531 301.329 4.92089C302.378 5.11306 302.462 5.51742 301.581 6.13395C301.021 6.51828 300.416 6.57833 299.768 6.3141C299.215 6.08991 298.647 6.02986 298.062 6.13395L290.533 7.49113C290.501 7.49914 290.481 7.48713 290.473 7.4551C290.449 7.34301 290.44 7.23489 290.448 7.1308C290.448 7.08276 290.477 7.05476 290.533 7.04675C291.894 6.99071 293.035 6.77451 293.955 6.39818C294.064 6.35209 294.157 6.2756 294.223 6.1779C294.289 6.0802 294.326 5.96546 294.328 5.84747C294.331 5.72948 294.299 5.61325 294.237 5.5128C294.175 5.41234 294.086 5.33194 293.979 5.28122Z" fill="#F4B34B"/>
<path d="M276.542 8.13973C275.005 8.14774 274.208 7.74338 274.152 6.92667C274.128 6.55034 273.98 6.23406 273.708 5.97784C272.707 5.05704 271.802 3.99613 270.994 2.79509C270.561 2.16254 270.657 2.06647 271.282 2.50685C273.708 4.20032 273.744 7.03476 277.731 6.20604C281.101 5.50143 284.384 5.40536 287.578 5.9178C287.867 5.96584 287.863 5.99388 287.566 6.00188C284.164 6.10597 280.861 6.27008 277.659 6.49428C277.186 6.5263 276.85 6.65045 276.65 6.86663C276.346 7.20292 276.31 7.62729 276.542 8.13973Z" fill="#050608"/>
<path d="M281.958 9.90523C283.767 8.91237 285.717 8.2878 287.806 8.03157C287.959 8.01556 288.067 8.06761 288.131 8.18771C288.147 8.21974 288.159 8.25577 288.167 8.2958C288.199 8.41591 288.155 8.49599 288.035 8.53603C286.001 9.15256 283.976 9.60897 281.958 9.90523Z" fill="#050608"/>
<path d="M276.542 8.13965C276.686 8.16367 276.818 8.21568 276.938 8.29575C276.991 8.32999 277.035 8.37562 277.068 8.42906C277.1 8.4825 277.12 8.54232 277.126 8.60389C277.132 8.66547 277.123 8.72716 277.101 8.78412C277.079 8.84107 277.044 8.89176 276.998 8.9323C276.117 9.72499 275.153 10.5257 274.104 11.3344C273.8 11.5746 273.596 11.8748 273.491 12.2352C273.315 12.8437 273.544 13.136 274.176 13.1119C275.073 13.0719 275.849 13.4122 276.506 14.1328C276.834 14.4931 276.754 14.6773 276.266 14.6853C272.623 14.7654 271.138 16.7431 271.81 20.6184C272.042 21.9396 273.724 24.4417 276.854 28.1249C281.43 33.5056 283.159 40.9761 276.962 45.9964C270.717 51.0408 262.887 48.6867 256.054 45.7202C251.154 43.5823 248.296 45.8403 244.369 48.0982C239.758 50.7525 236.395 48.3745 231.952 47.3776C229.285 46.7891 227.46 48.0262 225.575 49.6716C222.344 52.494 216.844 50.7525 214.658 55.3165C210.679 63.6037 207.052 71.3664 203.778 78.6046C203.566 79.0709 203.228 79.4687 202.802 79.7532C202.377 80.0378 201.88 80.1978 201.368 80.2153C200.856 80.2328 200.35 80.107 199.906 79.8521C199.461 79.5973 199.097 79.2235 198.854 78.7728C194.491 70.6698 190.456 62.863 186.749 55.3525C185.748 53.3188 184.047 52.2138 181.645 52.0376C180.86 51.9816 180.504 51.5612 180.576 50.7766L180.66 49.8157C180.724 49.1431 181.092 48.8268 181.765 48.8669C188.218 49.2352 194.551 49.1832 200.764 48.7108C201.74 48.6387 202.201 49.0911 202.145 50.0679L202.109 50.6444C202.069 51.317 201.72 51.7294 201.064 51.8815L199.839 52.1697C199.524 52.2443 199.229 52.3892 198.978 52.5936C198.727 52.7979 198.525 53.0564 198.387 53.3497C198.25 53.6431 198.18 53.9637 198.184 54.2876C198.188 54.6116 198.265 54.9304 198.41 55.2204L204.402 67.2308C204.423 67.2777 204.457 67.3172 204.5 67.3444C204.543 67.3716 204.593 67.3854 204.645 67.3841C204.697 67.3829 204.748 67.3666 204.793 67.3373C204.837 67.3079 204.872 67.2668 204.895 67.2188C206.144 64.3843 207.561 61.4338 209.146 58.3671C209.754 57.1981 210.179 55.961 210.419 54.6559C210.643 53.4468 210.167 52.6742 208.99 52.3379L207.14 51.8094C206.828 51.7214 206.608 51.5252 206.48 51.2209C206.232 50.5964 206.188 49.9678 206.348 49.3353C206.397 49.1435 206.513 48.9751 206.676 48.8589C206.838 48.7428 207.036 48.6861 207.237 48.6987C212.344 49.0511 217.008 49.023 221.227 48.6147C223.045 48.4385 224.322 47.4897 225.058 45.7682C226.908 41.4805 232.684 44.3269 235.338 45.8643C237.103 46.8731 239.337 46.693 240.874 45.3719C242.644 43.8586 244.481 42.3333 246.387 40.7959C251.034 37.0727 256.318 41.8288 260.317 44.0868C264.424 46.4168 269.384 46.693 272.951 43.282C275.625 40.7198 276.286 37.6132 274.933 33.962C272.327 26.9239 266.73 22.1197 271.738 14.0367C272.411 12.9438 272.651 11.8989 272.927 10.6618C273.039 10.1574 273.351 9.90116 273.864 9.89316C274.929 9.88515 275.821 9.30065 276.542 8.13965Z" fill="#050608"/>
<path d="M281.958 9.90521C280.413 10.9461 279.344 11.3184 278.751 11.0222C278.439 10.862 278.455 10.7379 278.8 10.6499L281.958 9.90521Z" fill="#050608"/>
<path d="M294.856 12.8838C296.23 11.5755 297.236 10.4021 297.103 10.2627C296.97 10.1234 295.749 11.0711 294.376 12.3793C293.002 13.6876 291.996 14.8611 292.128 15.0004C292.261 15.1397 293.482 14.1921 294.856 12.8838Z" fill="#050608"/>
<path d="M279.232 13.7726C278.687 13.4763 278.723 13.3202 279.34 13.3042C280.261 13.2882 281.009 13.6965 281.586 14.5292C281.994 15.1297 281.882 15.2538 281.249 14.9015L279.232 13.7726Z" fill="#050608"/>
<path d="M286.185 19.4655L287.903 18.1084C288.455 17.676 288.527 17.74 288.119 18.3005C287.438 19.2373 286.642 19.986 285.729 20.5465C285.601 20.6265 285.465 20.6626 285.321 20.6546C285.168 20.6546 285.032 20.6025 284.912 20.4984C284.704 20.3223 284.704 20.1461 284.912 19.97C285.048 19.8499 285.204 19.7818 285.381 19.7658C285.685 19.7498 285.953 19.6497 286.185 19.4655Z" fill="#F4B34B"/>
<path d="M138.556 63.9012C138.634 66.0417 138.253 68.178 137.432 70.1883C136.612 72.1985 135.37 74.0433 133.776 75.6173C132.182 77.1913 130.268 78.4637 128.143 79.3618C126.018 80.26 123.724 80.7662 121.392 80.8518C119.059 80.9373 116.734 80.6004 114.549 79.8603C112.364 79.1202 110.362 77.9915 108.657 76.5384C106.952 75.0854 105.578 73.3365 104.613 71.3917C103.648 69.447 103.111 67.3444 103.032 65.2039C102.954 63.0635 103.335 60.9271 104.156 58.9169C104.976 56.9066 106.218 55.0618 107.812 53.4878C109.406 51.9138 111.32 50.6414 113.445 49.7433C115.57 48.8452 117.864 48.3389 120.196 48.2534C122.529 48.1678 124.854 48.5047 127.039 49.2448C129.224 49.9849 131.226 51.1137 132.931 52.5667C134.636 54.0198 136.01 55.7686 136.975 57.7134C137.94 59.6582 138.477 61.7608 138.556 63.9012ZM126.043 56.9471C126.046 55.6252 125.523 54.3565 124.59 53.4202C123.657 52.4838 122.39 51.9565 121.068 51.9541L120.54 51.9532C119.885 51.952 119.237 52.0798 118.632 52.3292C118.027 52.5787 117.477 52.9449 117.013 53.4069C116.55 53.8689 116.181 54.4178 115.93 55.0221C115.678 55.6264 115.548 56.2743 115.547 56.9288L115.521 72.2541C115.518 73.576 116.041 74.8447 116.974 75.7811C117.907 76.7174 119.174 77.2448 120.496 77.2471L121.024 77.248C121.679 77.2492 122.327 77.1214 122.932 76.872C123.537 76.6225 124.087 76.2564 124.551 75.7943C125.014 75.3323 125.382 74.7835 125.634 74.1792C125.886 73.5749 126.016 72.9269 126.017 72.2724L126.043 56.9471Z" fill="#050608"/>
<path d="M166.645 75.7942C166.636 75.7113 166.601 75.6334 166.545 75.5709C166.49 75.5084 166.417 75.4644 166.336 75.4447C166.255 75.4251 166.169 75.4308 166.092 75.4611C166.014 75.4914 165.947 75.5448 165.901 75.6141C164.179 78.3044 161.709 79.8057 158.491 80.118C152.574 80.6945 148.711 79.1171 146.902 75.3859C144.332 70.0773 145.593 61.73 145.173 55.6288C145.132 55.0363 144.891 54.4759 144.489 54.0409C144.087 53.6059 143.548 53.3227 142.963 53.2387L141.09 52.9624C140.617 52.8984 140.317 52.6342 140.189 52.1697C140.061 51.6893 140.061 51.2049 140.189 50.7165C140.293 50.3001 140.557 50.0719 140.982 50.0319L155.273 48.5666C155.454 48.5481 155.637 48.5679 155.809 48.6247C155.982 48.6816 156.141 48.7742 156.276 48.8965C156.411 49.0189 156.519 49.1682 156.592 49.3349C156.665 49.5015 156.703 49.6817 156.702 49.8638C156.67 57.094 156.722 63.988 156.858 70.5457C156.922 73.6684 158.479 75.2297 161.529 75.2297C161.922 75.2297 162.278 75.1416 162.598 74.9655C165.072 73.6123 166.317 71.5585 166.333 68.8042C166.365 64.5685 166.301 60.521 166.141 56.6617C166.037 54.2115 164.608 52.9544 161.854 52.8904C161.213 52.8744 160.893 52.5501 160.893 51.9175V50.8726C160.893 50.08 161.289 49.6756 162.082 49.6596C166.709 49.5955 171.369 49.1632 176.06 48.3625C176.224 48.3348 176.392 48.3427 176.552 48.3859C176.713 48.429 176.862 48.5062 176.989 48.6123C177.117 48.7183 177.22 48.8507 177.292 49.0004C177.364 49.15 177.403 49.3134 177.406 49.4794C177.59 56.8218 177.726 64.0841 177.814 71.2663C177.838 73.5323 179.019 74.6572 181.357 74.6412C182.053 74.6332 182.477 74.9695 182.63 75.6501L182.702 75.9744C182.934 76.9993 182.529 77.5717 181.489 77.6918C177.229 78.1883 172.982 78.985 168.747 80.0819C168.546 80.1333 168.336 80.1411 168.132 80.1048C167.928 80.0685 167.735 79.9888 167.565 79.8714C167.395 79.754 167.253 79.6015 167.148 79.4243C167.043 79.2471 166.978 79.0495 166.957 78.8449L166.645 75.7942Z" fill="#050608"/>
<path d="M16.782 54.0914C20.4688 50.6204 23.3751 48.0502 28.7792 49.4314C31.8176 50.2121 34.0993 52.5541 36.0328 54.8962C36.0742 54.9451 36.1257 54.9846 36.1835 55.0117C36.2414 55.0388 36.3043 55.0529 36.3675 55.0529C36.4307 55.0529 36.4928 55.0388 36.5491 55.0117C36.6055 54.9846 36.6547 54.9451 36.6933 54.8962C38.6268 52.5061 41.437 50.104 44.4513 49.3834C51.2605 47.774 57.4573 51.9176 57.3252 59.1719C57.2451 63.6237 57.1691 68.0876 57.097 72.5634C57.049 75.2378 58.374 76.639 61.0721 76.7671C61.7846 76.7991 62.1049 77.1674 62.0328 77.8721L61.9728 78.4606C61.8767 79.3733 61.3723 79.7937 60.4596 79.7216C54.6712 79.2572 49.1189 79.2212 43.8028 79.6135C43.3625 79.6456 43.0582 79.4574 42.8901 79.049C42.738 78.6647 42.722 78.2764 42.842 77.884C42.9374 77.5791 43.1086 77.3035 43.3397 77.0829C43.5708 76.8623 43.8541 76.704 44.1631 76.623C45.412 76.3027 46.0765 75.486 46.1566 74.1728C46.4929 68.8642 46.5769 63.4836 46.4088 58.0308C46.3127 55.0443 44.6434 53.8152 41.4009 54.3437C41.0006 54.4077 40.6324 54.5439 40.2961 54.752C37.9903 56.1452 36.7534 57.8627 36.5852 59.9045C36.297 63.3875 36.1729 67.0907 36.213 71.0141C36.237 73.6444 35.8166 75.8543 38.5307 77.0913C39.1312 77.3636 39.4114 77.824 39.3714 78.4726C39.3073 79.3373 38.835 79.7377 37.9543 79.6736C33.1346 79.3213 28.1387 79.3133 22.9668 79.6496C22.4624 79.6816 22.1301 79.4574 21.97 78.977C21.8499 78.6167 21.8499 78.2403 21.97 77.848C22.0545 77.5573 22.2123 77.2925 22.4286 77.0783C22.6449 76.864 22.9127 76.7074 23.207 76.623C24.592 76.2226 25.3206 75.2978 25.3926 73.8486C25.6728 68.3638 25.7729 63.2314 25.6929 58.4512C25.6448 55.841 24.3398 54.4638 21.7779 54.3196C18.1991 54.1275 15.5691 58.7755 15.5451 61.8622C15.529 65.7215 15.489 69.5769 15.425 73.4282C15.3849 75.3258 16.2536 76.4788 18.031 76.8872C18.2597 76.939 18.464 77.0671 18.6102 77.2505C18.7564 77.4339 18.8359 77.6615 18.8356 77.8961L18.8236 78.3525C18.8236 79.3533 18.3232 79.8137 17.3224 79.7336C11.7581 79.2773 6.32997 79.2773 1.0379 79.7336C0.485477 79.7817 0.0691556 79.5655 -0.21106 79.0851C-0.611368 78.3965 -0.507294 77.812 0.101174 77.3316C2.14274 75.7222 4.58063 76.707 4.72474 72.8877C4.87685 68.7081 4.97693 64.2403 5.02497 59.4841C5.04098 57.4504 4.11626 56.3294 2.25083 56.1212C1.83451 56.0732 1.52227 55.869 1.31411 55.5087C1.05791 55.0603 1.0419 54.5999 1.26607 54.1275C1.34163 53.9694 1.45054 53.8296 1.5853 53.7176C1.72005 53.6057 1.87745 53.5242 2.04667 53.4789C6.05776 52.358 10.0889 50.7606 14.14 48.6868C14.3428 48.5825 14.57 48.5347 14.7977 48.5483C15.0254 48.5619 15.2452 48.6364 15.4342 48.7641C15.6232 48.8917 15.7745 49.0678 15.8721 49.274C15.9698 49.4801 16.0103 49.7087 15.9894 49.9359L15.6531 53.551C15.5491 54.712 15.9254 54.8921 16.782 54.0914Z" fill="#F4B34B"/>
<path d="M98.8321 63.335C99.1762 67.6119 97.6446 71.8633 94.5744 75.1541C91.5042 78.4449 87.1469 80.5055 82.4609 80.8826C80.1406 81.0693 77.8095 80.837 75.6006 80.1991C73.3918 79.5612 71.3484 78.5301 69.5873 77.1647C67.8261 75.7993 66.3817 74.1263 65.3363 72.2413C64.291 70.3562 63.6653 68.2961 63.4949 66.1784C63.1509 61.9015 64.6824 57.65 67.7526 54.3592C70.8228 51.0684 75.1802 49.0079 79.8662 48.6308C82.1864 48.4441 84.5175 48.6763 86.7264 49.3142C88.9352 49.9521 90.9786 50.9832 92.7397 52.3486C94.5009 53.7141 95.9454 55.3871 96.9907 57.2721C98.036 59.1571 98.6617 61.2173 98.8321 63.335ZM86.0753 71.7347C86.8799 66.7624 88.1769 52.7103 82.0042 52.0857C79.1299 51.7975 77.3005 53.1186 76.5159 56.0491C75.5192 59.8324 72.8531 79.2412 81.9801 77.4997C84.5501 77.0073 85.715 74.0167 86.0753 71.7347Z" fill="#050608"/>
<line x1="285.673" y1="19.6222" x2="300.673" y2="6.62216" stroke="#F4B34B"/>
<line x1="269.373" y1="0.666603" x2="286.373" y2="19.6666" stroke="#F4B34B"/>
<line x1="278.866" y1="10.5182" x2="296.866" y2="5.51824" stroke="#F4B34B"/>
<line x1="275.974" y1="6.50069" x2="294.974" y2="5.50069" stroke="#F4B34B"/>
</g>
<defs>
<clipPath id="clip0_194_2">
<rect width="302" height="81" fill="white"/>
</clipPath>
</defs>
</svg>
