<svg width="302" height="112" viewBox="0 0 302 112" fill="none" xmlns="http://www.w3.org/2000/svg">
<g clip-path="url(#clip0_194_2)">
<path d="M269.901 9.85823L268.856 9.07757C268.247 8.62117 268.327 8.40899 269.096 8.44102C269.825 8.46504 270.525 8.55312 271.198 8.70525C271.854 8.84937 271.866 9.03352 271.234 9.25771C271.01 9.32978 270.845 9.46589 270.741 9.66606C270.541 10.0664 270.261 10.1305 269.901 9.85823Z" fill="#050608"/>
<path d="M293.979 13.2812C292.194 12.4405 290.32 11.84 288.359 11.4797C283.379 10.5749 278.179 9.83022 272.759 9.24571C272.575 9.22169 272.495 9.1216 272.519 8.94545V8.93347C272.535 8.82938 272.595 8.7813 272.699 8.78931C281.938 9.71811 291.481 11.0953 301.329 12.9209C302.378 13.1131 302.462 13.5174 301.581 14.134C301.021 14.5183 300.416 14.5783 299.768 14.3141C299.215 14.0899 298.647 14.0299 298.062 14.134L290.533 15.4911C290.501 15.4991 290.481 15.4871 290.473 15.4551C290.449 15.343 290.44 15.2349 290.448 15.1308C290.448 15.0828 290.477 15.0548 290.533 15.0468C291.894 14.9907 293.035 14.7745 293.955 14.3982C294.064 14.3521 294.157 14.2756 294.223 14.1779C294.289 14.0802 294.326 13.9655 294.328 13.8475C294.331 13.7295 294.299 13.6133 294.237 13.5128C294.175 13.4123 294.086 13.3319 293.979 13.2812Z" fill="#F4B34B"/>
<path d="M276.542 16.1397C275.005 16.1477 274.208 15.7434 274.152 14.9267C274.128 14.5503 273.98 14.2341 273.708 13.9778C272.707 13.057 271.802 11.9961 270.994 10.7951C270.561 10.1625 270.657 10.0665 271.282 10.5069C273.708 12.2003 273.744 15.0348 277.731 14.206C281.101 13.5014 284.384 13.4054 287.578 13.9178C287.867 13.9658 287.863 13.9939 287.566 14.0019C284.164 14.106 280.861 14.2701 277.659 14.4943C277.186 14.5263 276.85 14.6504 276.65 14.8666C276.346 15.2029 276.31 15.6273 276.542 16.1397Z" fill="#050608"/>
<path d="M281.958 17.9052C283.767 16.9124 285.717 16.2878 287.806 16.0316C287.959 16.0156 288.067 16.0676 288.131 16.1877C288.147 16.2197 288.159 16.2558 288.167 16.2958C288.199 16.4159 288.155 16.496 288.035 16.536C286.001 17.1526 283.976 17.609 281.958 17.9052Z" fill="#050608"/>
<path d="M276.542 16.1396C276.686 16.1637 276.818 16.2157 276.938 16.2958C276.991 16.33 277.035 16.3756 277.068 16.4291C277.1 16.4825 277.12 16.5423 277.126 16.6039C277.132 16.6655 277.123 16.7272 277.101 16.7841C277.079 16.8411 277.044 16.8918 276.998 16.9323C276.117 17.725 275.153 18.5257 274.104 19.3344C273.8 19.5746 273.596 19.8748 273.491 20.2352C273.315 20.8437 273.544 21.136 274.176 21.1119C275.073 21.0719 275.849 21.4122 276.506 22.1328C276.834 22.4931 276.754 22.6773 276.266 22.6853C272.623 22.7654 271.138 24.7431 271.81 28.6184C272.042 29.9396 273.724 32.4417 276.854 36.1249C281.43 41.5056 283.159 48.9761 276.962 53.9964C270.717 59.0408 262.887 56.6867 256.054 53.7202C251.154 51.5823 248.296 53.8403 244.369 56.0982C239.758 58.7525 236.395 56.3745 231.952 55.3776C229.285 54.7891 227.46 56.0262 225.575 57.6716C222.344 60.494 216.844 58.7525 214.658 63.3165C210.679 71.6037 207.052 79.3664 203.778 86.6046C203.566 87.0709 203.228 87.4687 202.802 87.7532C202.377 88.0378 201.88 88.1978 201.368 88.2153C200.856 88.2328 200.35 88.107 199.906 87.8521C199.461 87.5973 199.097 87.2235 198.854 86.7728C194.491 78.6698 190.456 70.863 186.749 63.3525C185.748 61.3188 184.047 60.2138 181.645 60.0376C180.86 59.9816 180.504 59.5612 180.576 58.7766L180.66 57.8157C180.724 57.1431 181.092 56.8268 181.765 56.8669C188.218 57.2352 194.551 57.1832 200.764 56.7108C201.74 56.6387 202.201 57.0911 202.145 58.0679L202.109 58.6444C202.069 59.317 201.72 59.7294 201.064 59.8815L199.839 60.1697C199.524 60.2443 199.229 60.3892 198.978 60.5936C198.727 60.7979 198.525 61.0564 198.387 61.3497C198.25 61.6431 198.18 61.9637 198.184 62.2876C198.188 62.6116 198.265 62.9304 198.41 63.2204L204.402 75.2308C204.423 75.2777 204.457 75.3172 204.5 75.3444C204.543 75.3716 204.593 75.3854 204.645 75.3841C204.697 75.3829 204.748 75.3666 204.793 75.3373C204.837 75.3079 204.872 75.2668 204.895 75.2188C206.144 72.3843 207.561 69.4338 209.146 66.3671C209.754 65.1981 210.179 63.961 210.419 62.6559C210.643 61.4468 210.167 60.6742 208.99 60.3379L207.14 59.8094C206.828 59.7214 206.608 59.5252 206.48 59.2209C206.232 58.5964 206.188 57.9678 206.348 57.3353C206.397 57.1435 206.513 56.9751 206.676 56.8589C206.838 56.7428 207.036 56.6861 207.237 56.6987C212.344 57.0511 217.008 57.023 221.227 56.6147C223.045 56.4385 224.322 55.4897 225.058 53.7682C226.908 49.4805 232.684 52.3269 235.338 53.8643C237.103 54.8731 239.337 54.693 240.874 53.3719C242.644 51.8586 244.481 50.3333 246.387 48.7959C251.034 45.0727 256.318 49.8288 260.317 52.0868C264.424 54.4168 269.384 54.693 272.951 51.282C275.625 48.7198 276.286 45.6132 274.933 41.962C272.327 34.9239 266.73 30.1197 271.738 22.0367C272.411 20.9438 272.651 19.8989 272.927 18.6618C273.039 18.1574 273.351 17.9012 273.864 17.8932C274.929 17.8851 275.821 17.3007 276.542 16.1396Z" fill="white"/>
<path d="M281.958 17.9052C280.413 18.9461 279.344 19.3184 278.751 19.0222C278.439 18.862 278.455 18.7379 278.8 18.6499L281.958 17.9052Z" fill="#050608"/>
<path d="M294.856 20.8838C296.23 19.5755 297.236 18.4021 297.103 18.2627C296.97 18.1234 295.749 19.0711 294.376 20.3793C293.002 21.6876 291.996 22.8611 292.128 23.0004C292.261 23.1397 293.482 22.1921 294.856 20.8838Z" fill="#050608"/>
<path d="M279.232 21.7726C278.687 21.4763 278.723 21.3202 279.34 21.3042C280.261 21.2882 281.009 21.6965 281.586 22.5292C281.994 23.1297 281.882 23.2538 281.249 22.9015L279.232 21.7726Z" fill="#050608"/>
<path d="M286.185 27.4655L287.903 26.1084C288.455 25.676 288.527 25.74 288.119 26.3005C287.438 27.2373 286.642 27.986 285.729 28.5465C285.601 28.6265 285.465 28.6626 285.321 28.6546C285.168 28.6546 285.032 28.6025 284.912 28.4984C284.704 28.3223 284.704 28.1461 284.912 27.97C285.048 27.8499 285.204 27.7818 285.381 27.7658C285.685 27.7498 285.953 27.6497 286.185 27.4655Z" fill="#F4B34B"/>
<path d="M138.556 71.9012C138.634 74.0417 138.253 76.178 137.432 78.1883C136.612 80.1985 135.37 82.0433 133.776 83.6173C132.182 85.1913 130.268 86.4637 128.143 87.3618C126.018 88.26 123.724 88.7662 121.392 88.8518C119.059 88.9373 116.734 88.6004 114.549 87.8603C112.364 87.1202 110.362 85.9915 108.657 84.5384C106.952 83.0854 105.578 81.3365 104.613 79.3917C103.648 77.447 103.111 75.3444 103.032 73.2039C102.954 71.0635 103.335 68.9271 104.156 66.9169C104.976 64.9066 106.218 63.0618 107.812 61.4878C109.406 59.9138 111.32 58.6414 113.445 57.7433C115.57 56.8452 117.864 56.3389 120.196 56.2534C122.529 56.1678 124.854 56.5047 127.039 57.2448C129.224 57.9849 131.226 59.1137 132.931 60.5667C134.636 62.0198 136.01 63.7686 136.975 65.7134C137.94 67.6582 138.477 69.7608 138.556 71.9012ZM126.043 64.9471C126.046 63.6252 125.523 62.3565 124.59 61.4202C123.657 60.4838 122.39 59.9565 121.068 59.9541L120.54 59.9532C119.885 59.952 119.237 60.0798 118.632 60.3292C118.027 60.5787 117.477 60.9449 117.013 61.4069C116.55 61.8689 116.181 62.4178 115.93 63.0221C115.678 63.6264 115.548 64.2743 115.547 64.9288L115.521 80.2541C115.518 81.576 116.041 82.8447 116.974 83.7811C117.907 84.7174 119.174 85.2448 120.496 85.2471L121.024 85.248C121.679 85.2492 122.327 85.1214 122.932 84.872C123.537 84.6225 124.087 84.2564 124.551 83.7943C125.014 83.3323 125.382 82.7835 125.634 82.1792C125.886 81.5749 126.016 80.9269 126.017 80.2724L126.043 64.9471Z" fill="white"/>
<path d="M166.645 83.7942C166.636 83.7113 166.601 83.6334 166.545 83.5709C166.49 83.5084 166.417 83.4644 166.336 83.4447C166.255 83.4251 166.169 83.4308 166.092 83.4611C166.014 83.4914 165.947 83.5448 165.901 83.6141C164.179 86.3044 161.709 87.8057 158.491 88.118C152.574 88.6945 148.711 87.1171 146.902 83.3859C144.332 78.0773 145.593 69.73 145.173 63.6288C145.132 63.0363 144.891 62.4759 144.489 62.0409C144.087 61.6059 143.548 61.3227 142.963 61.2387L141.09 60.9624C140.617 60.8984 140.317 60.6342 140.189 60.1697C140.061 59.6893 140.061 59.2049 140.189 58.7165C140.293 58.3001 140.557 58.0719 140.982 58.0319L155.273 56.5666C155.454 56.5481 155.637 56.5679 155.809 56.6247C155.982 56.6816 156.141 56.7742 156.276 56.8965C156.411 57.0189 156.519 57.1682 156.592 57.3349C156.665 57.5015 156.703 57.6817 156.702 57.8638C156.67 65.094 156.722 71.988 156.858 78.5457C156.922 81.6684 158.479 83.2297 161.529 83.2297C161.922 83.2297 162.278 83.1416 162.598 82.9655C165.072 81.6123 166.317 79.5585 166.333 76.8042C166.365 72.5685 166.301 68.521 166.141 64.6617C166.037 62.2115 164.608 60.9544 161.854 60.8904C161.213 60.8744 160.893 60.5501 160.893 59.9175V58.8726C160.893 58.08 161.289 57.6756 162.082 57.6596C166.709 57.5955 171.369 57.1632 176.06 56.3625C176.224 56.3348 176.392 56.3427 176.552 56.3859C176.713 56.429 176.862 56.5062 176.989 56.6123C177.117 56.7183 177.22 56.8507 177.292 57.0004C177.364 57.15 177.403 57.3134 177.406 57.4794C177.59 64.8218 177.726 72.0841 177.814 79.2663C177.838 81.5323 179.019 82.6572 181.357 82.6412C182.053 82.6332 182.477 82.9695 182.63 83.6501L182.702 83.9744C182.934 84.9993 182.529 85.5717 181.489 85.6918C177.229 86.1883 172.982 86.985 168.747 88.0819C168.546 88.1333 168.336 88.1411 168.132 88.1048C167.928 88.0685 167.735 87.9888 167.565 87.8714C167.395 87.754 167.253 87.6015 167.148 87.4243C167.043 87.2471 166.978 87.0495 166.957 86.8449L166.645 83.7942Z" fill="white"/>
<path d="M16.782 62.0914C20.4688 58.6204 23.3751 56.0502 28.7792 57.4314C31.8176 58.2121 34.0993 60.5541 36.0328 62.8962C36.0742 62.9451 36.1257 62.9846 36.1835 63.0117C36.2414 63.0388 36.3043 63.0529 36.3675 63.0529C36.4307 63.0529 36.4928 63.0388 36.5491 63.0117C36.6055 62.9846 36.6547 62.9451 36.6933 62.8962C38.6268 60.5061 41.437 58.104 44.4513 57.3834C51.2605 55.774 57.4573 59.9176 57.3252 67.1719C57.2451 71.6237 57.1691 76.0876 57.097 80.5634C57.049 83.2378 58.374 84.639 61.0721 84.7671C61.7846 84.7991 62.1049 85.1674 62.0328 85.8721L61.9728 86.4606C61.8767 87.3733 61.3723 87.7937 60.4596 87.7216C54.6712 87.2572 49.1189 87.2212 43.8028 87.6135C43.3624 87.6456 43.0582 87.4574 42.8901 87.049C42.738 86.6647 42.722 86.2764 42.842 85.884C42.9374 85.5791 43.1086 85.3035 43.3397 85.0829C43.5708 84.8623 43.8541 84.704 44.1631 84.623C45.412 84.3027 46.0765 83.486 46.1566 82.1728C46.4929 76.8642 46.5769 71.4836 46.4088 66.0308C46.3127 63.0443 44.6434 61.8152 41.4009 62.3437C41.0006 62.4077 40.6324 62.5439 40.2961 62.752C37.9903 64.1452 36.7534 65.8627 36.5852 67.9045C36.297 71.3875 36.1729 75.0907 36.213 79.0141C36.237 81.6444 35.8166 83.8543 38.5307 85.0913C39.1312 85.3636 39.4114 85.824 39.3714 86.4726C39.3073 87.3373 38.835 87.7377 37.9543 87.6736C33.1346 87.3213 28.1387 87.3133 22.9668 87.6496C22.4624 87.6816 22.1301 87.4574 21.97 86.977C21.8499 86.6167 21.8499 86.2403 21.97 85.848C22.0545 85.5573 22.2123 85.2925 22.4286 85.0783C22.6449 84.864 22.9127 84.7074 23.207 84.623C24.592 84.2226 25.3206 83.2978 25.3926 81.8486C25.6728 76.3638 25.7729 71.2314 25.6929 66.4512C25.6448 63.841 24.3398 62.4638 21.7779 62.3196C18.1991 62.1275 15.5691 66.7755 15.5451 69.8622C15.529 73.7215 15.489 77.5769 15.425 81.4282C15.3849 83.3258 16.2536 84.4788 18.031 84.8872C18.2597 84.939 18.464 85.0671 18.6102 85.2505C18.7564 85.4339 18.8359 85.6615 18.8356 85.8961L18.8236 86.3525C18.8236 87.3533 18.3232 87.8137 17.3224 87.7337C11.7581 87.2773 6.32997 87.2773 1.0379 87.7337C0.485477 87.7817 0.0691556 87.5655 -0.21106 87.0851C-0.611368 86.3965 -0.507294 85.812 0.101174 85.3316C2.14274 83.7222 4.58063 84.707 4.72474 80.8877C4.87685 76.7081 4.97693 72.2403 5.02497 67.4841C5.04098 65.4504 4.11626 64.3294 2.25083 64.1212C1.83451 64.0732 1.52227 63.869 1.31411 63.5087C1.05791 63.0603 1.0419 62.5999 1.26607 62.1275C1.34163 61.9694 1.45054 61.8296 1.5853 61.7176C1.72005 61.6057 1.87745 61.5242 2.04667 61.4789C6.05776 60.358 10.0889 58.7606 14.14 56.6868C14.3428 56.5825 14.57 56.5347 14.7977 56.5483C15.0254 56.5619 15.2452 56.6364 15.4342 56.7641C15.6232 56.8917 15.7745 57.0678 15.8722 57.274C15.9698 57.4801 16.0103 57.7087 15.9894 57.9359L15.6531 61.551C15.5491 62.712 15.9254 62.8921 16.782 62.0914Z" fill="#F4B34B"/>
<path d="M98.8321 71.335C99.1762 75.6119 97.6446 79.8633 94.5744 83.1541C91.5042 86.4449 87.1469 88.5055 82.4609 88.8826C80.1406 89.0693 77.8095 88.837 75.6006 88.1991C73.3918 87.5612 71.3484 86.5301 69.5873 85.1647C67.8261 83.7993 66.3817 82.1263 65.3363 80.2413C64.291 78.3562 63.6653 76.2961 63.4949 74.1784C63.1509 69.9015 64.6824 65.65 67.7526 62.3592C70.8228 59.0684 75.1802 57.0079 79.8662 56.6308C82.1864 56.4441 84.5175 56.6763 86.7264 57.3142C88.9352 57.9521 90.9786 58.9832 92.7397 60.3486C94.5009 61.7141 95.9454 63.3871 96.9907 65.2721C98.036 67.1571 98.6617 69.2173 98.8321 71.335ZM86.0753 79.7347C86.8799 74.7624 88.1769 60.7103 82.0042 60.0857C79.1299 59.7975 77.3005 61.1186 76.5159 64.0491C75.5192 67.8324 72.8531 87.2412 81.9801 85.4997C84.5501 85.0073 85.715 82.0167 86.0753 79.7347Z" fill="white"/>
<line x1="285.673" y1="27.6222" x2="300.673" y2="14.6222" stroke="#F4B34B"/>
<line x1="269.373" y1="8.6666" x2="286.373" y2="27.6666" stroke="#F4B34B"/>
<line x1="278.866" y1="18.5182" x2="296.866" y2="13.5182" stroke="#F4B34B"/>
<line x1="275.974" y1="14.5007" x2="294.974" y2="13.5007" stroke="#F4B34B"/>
</g>
<defs>
<clipPath id="clip0_194_2">
<rect width="302" height="112" fill="white"/>
</clipPath>
</defs>
</svg>
